<svg id="图层_1" data-name="图层 1" xmlns="http://www.w3.org/2000/svg" viewBox="0 0 347.75 100.11"><defs><style>.cls-1{fill:#fff;}.cls-2{fill:#a7a9ac;}.cls-3{fill:#414042;}.cls-4{fill:#2ea0d2;}.cls-5{fill:#216fb0;}</style></defs><title>未标题-1</title><path class="cls-1" d="M189.71,208.76v90.59L505.47,299c9.85-1,29.36-8.25,31.47-17.94a22.73,22.73,0,0,0-2.64-16.33,21.75,21.75,0,0,0-5.16-6.07,21.24,21.24,0,0,0-4.06-2.71l-.94-.41-14-6L444.27,221.1a150.78,150.78,0,0,0-59.79-12.33Z" transform="translate(-189.7 -208.76)"/><path class="cls-2" d="M536.93,281.05c-2.09,9.68-21.59,16.92-31.44,17.92l-315.78.4V281.05Z" transform="translate(-189.7 -208.76)"/><path class="cls-3" d="M443,224l49.86,21.5-68.13-4a21.26,21.26,0,0,1-18.71-13.88h0a7.22,7.22,0,0,1,6.78-9.71h13.26A149.55,149.55,0,0,1,443,224Z" transform="translate(-189.7 -208.76)"/><path class="cls-3" d="M382.74,240.94h0a7,7,0,0,0,7-7v-7.71a7,7,0,0,0-7-7h0a7,7,0,0,0-7,7V234A7,7,0,0,0,382.74,240.94Z" transform="translate(-189.7 -208.76)"/><path class="cls-3" d="M366.27,240.94h0a7,7,0,0,0,7-7v-7.71a7,7,0,0,0-7-7h0a7,7,0,0,0-7,7V234A7,7,0,0,0,366.27,240.94Z" transform="translate(-189.7 -208.76)"/><path class="cls-3" d="M349.8,240.94h0a7,7,0,0,0,7-7v-7.71a7,7,0,0,0-7-7h0a7,7,0,0,0-7,7V234A7,7,0,0,0,349.8,240.94Z" transform="translate(-189.7 -208.76)"/><path class="cls-3" d="M333.32,240.94h0a7,7,0,0,0,7-7v-7.71a7,7,0,0,0-7-7h0a7,7,0,0,0-7,7V234A7,7,0,0,0,333.32,240.94Z" transform="translate(-189.7 -208.76)"/><path class="cls-3" d="M316.85,240.94h0a7,7,0,0,0,7-7v-7.71a7,7,0,0,0-7-7h0a7,7,0,0,0-7,7V234A7,7,0,0,0,316.85,240.94Z" transform="translate(-189.7 -208.76)"/><path class="cls-3" d="M281.26,240.94h0a7,7,0,0,0,7-7v-7.71a7,7,0,0,0-7-7h0a7,7,0,0,0-7,7V234A7,7,0,0,0,281.26,240.94Z" transform="translate(-189.7 -208.76)"/><path class="cls-3" d="M264.79,240.94h0a7,7,0,0,0,7-7v-7.71a7,7,0,0,0-7-7h0a7,7,0,0,0-7,7V234A7,7,0,0,0,264.79,240.94Z" transform="translate(-189.7 -208.76)"/><path class="cls-3" d="M248.32,240.94h0a7,7,0,0,0,7-7v-7.71a7,7,0,0,0-7-7h0a7,7,0,0,0-7,7V234A7,7,0,0,0,248.32,240.94Z" transform="translate(-189.7 -208.76)"/><path class="cls-3" d="M231.85,240.94h0a7,7,0,0,0,7-7v-7.71a7,7,0,0,0-7-7h0a7,7,0,0,0-7,7V234A7,7,0,0,0,231.85,240.94Z" transform="translate(-189.7 -208.76)"/><path class="cls-3" d="M215.38,240.94h0a7,7,0,0,0,7-7v-7.71a7,7,0,0,0-7-7h0a7,7,0,0,0-7,7V234A7,7,0,0,0,215.38,240.94Z" transform="translate(-189.7 -208.76)"/><polygon class="cls-4" points="0.79 40.72 0.79 46.76 334.44 46.76 320.4 40.72 0.79 40.72"/><path class="cls-5" d="M190.49,258.64v6.07H534.3a21.75,21.75,0,0,0-5.16-6.07Z" transform="translate(-189.7 -208.76)"/><rect class="cls-3" x="0.98" y="94.06" width="346.77" height="6.05"/></svg>